<?xml version="1.0" encoding="UTF-8"?>
<svg width="1080" height="1080" viewBox="0 0 1080 1080" fill="none" xmlns="http://www.w3.org/2000/svg">
<path d="M779.701 96.6997L647.914 241.666L597.762 196.073L729.549 51.1073L779.701 96.6997Z" fill="black"/>
<path d="M300.299 96.6997L432.086 241.666L482.238 196.073L350.451 51.1073L300.299 96.6997Z" fill="black"/>
<path d="M137.107 625.107C137.107 509.978 185.397 406.127 262.827 332.705L310.777 380.655C245.602 441.793 204.883 528.693 204.883 625.107C204.883 810.187 354.92 960.224 540 960.224C725.08 960.224 875.117 810.187 875.117 625.107C875.117 536.442 840.677 455.824 784.452 395.887L832.402 347.938C900.882 420.158 942.893 517.725 942.893 625.107C942.893 847.619 762.512 1028 540 1028C317.488 1028 137.107 847.619 137.107 625.107ZM641.396 781.522C652.015 774.65 661.945 766.692 670.951 757.74C706.196 723.177 726.622 674.504 726.387 625.107C727.141 575.709 705.759 527.687 671.201 492.989C691.062 482.606 709.82 469.376 726.876 453.3C769.293 499.812 795.076 561.623 794.161 625.107C794.53 692.184 766.501 759.068 718.571 805.969C709.728 814.777 700.199 822.887 690.118 830.247L641.396 781.522ZM485.402 625.107C485.402 594.954 509.847 570.509 540 570.509C570.153 570.509 594.598 594.954 594.598 625.107C594.598 655.26 570.153 679.705 540 679.705C509.847 679.705 485.402 655.26 485.402 625.107ZM390.425 829.703C326.726 782.235 283.898 706.071 285.84 625.107C284.822 554.418 316.903 485.802 368.195 438.073L378.174 448.051C391.3 461.177 405.522 472.539 420.544 482.141C379.159 517.242 352.78 570.331 353.617 625.107C352.059 688.014 387.487 747.045 438.915 781.213L390.425 829.703Z" fill="black"/>
<path d="M558.827 161.022C603.756 161.022 648.246 169.871 689.756 187.065C731.265 204.258 768.981 229.46 800.751 261.23L659.302 402.679C646.107 389.485 630.443 379.019 613.204 371.878C595.964 364.737 577.487 361.062 558.827 361.062C540.167 361.062 521.689 364.737 504.45 371.878C487.21 379.019 471.546 389.485 458.352 402.679L316.903 261.23C348.673 229.46 386.389 204.258 427.898 187.065C469.407 169.871 513.897 161.022 558.827 161.022ZM473.108 243.128C449.437 243.128 430.248 262.317 430.248 285.988C430.248 309.658 449.437 328.846 473.108 328.846C496.778 328.846 515.966 309.658 515.966 285.988C515.966 262.317 496.778 243.128 473.108 243.128ZM646.927 243.128C623.256 243.128 604.068 262.317 604.068 285.988C604.068 309.658 623.256 328.846 646.927 328.846C670.597 328.846 689.787 309.658 689.787 285.988C689.787 262.317 670.597 243.128 646.927 243.128Z" fill="black"/>
</svg>
